<svg width="99" height="123" viewBox="0 0 99 123" fill="none" xmlns="http://www.w3.org/2000/svg">
<path d="M99 99.366C99 111.953 88.7964 122.157 76.2142 122.157H63.5622C66.2585 122.157 68.8306 121.684 71.2199 120.822C79.0666 117.97 84.8734 110.867 85.8527 102.294C85.9441 101.573 85.9928 100.83 85.998 100.081C86.0252 99.8449 86.0411 99.6026 86.0411 99.3608C86.0411 95.9593 83.2909 93.204 79.8955 93.204H79.8739C69.2613 93.2255 48.1652 93.2794 42.7998 93.2794C34.173 93.2794 25.8532 90.7176 18.739 85.8743C16.5216 84.3621 14.4444 82.6452 12.5498 80.7619C12.0335 80.2399 11.5274 79.7123 11.0377 79.1687C4.96758 72.4313 0.931103 63.6536 0.199157 54.5695C0.0431182 52.6698 0.00564808 36.9017 1.93569e-06 22.7966C-0.00513092 10.2093 10.1985 0 22.7858 0H22.9742C25.5036 0 27.9361 0.414736 30.2069 1.16773C23.0388 3.77265 17.7325 10.2626 16.8394 18.0933C16.7475 18.5127 16.6992 18.9433 16.6992 19.3899V44.7749C16.6992 49.3494 16.5109 53.9453 17.8993 58.3637C19.1533 62.3565 21.3917 65.9998 24.341 68.96L24.4216 69.0405C25.5467 70.1492 26.8007 71.1773 28.1296 72.0869C32.1281 74.815 36.9289 76.3112 41.7558 76.4832C43.2305 76.5371 60.9091 76.5643 76.2358 76.5802C88.8128 76.591 99 86.7889 99 99.366Z" fill="#00B5E8"/>
<path d="M85.9985 100.081C85.9933 100.829 85.9446 101.572 85.8532 102.293C84.8739 110.866 79.0671 117.97 71.2205 120.822C68.8311 121.683 66.2585 122.157 63.5627 122.157H42.7952C31.3859 122.157 20.6444 117.712 12.5452 109.634C4.45634 101.524 0.0112915 90.7823 0.0112915 79.373V62.7333C0.0112915 74.1477 4.45634 84.8893 12.5452 92.9992C20.6444 101.072 31.3859 105.517 42.7952 105.517H79.8847C83.0384 105.517 85.6433 103.138 85.9985 100.081Z" fill="#017DC0"/>
<g opacity="0.5">
<path d="M85.8912 100.701C85.8799 100.753 85.8676 100.804 85.8548 100.855C85.4657 102.411 84.4863 103.735 83.1616 104.574C82.9301 104.721 82.7422 106.197 82.6436 106.508C82.427 107.193 82.1766 107.867 81.8948 108.527C81.3476 109.807 80.6803 111.036 79.9053 112.191C78.8623 113.747 77.692 115.25 76.2784 116.487C74.8237 117.76 73.0313 118.628 71.2225 119.28C68.8306 120.142 66.259 120.614 63.5643 120.614H42.7967C31.3864 120.614 20.6433 116.169 12.5437 108.095C4.4543 99.9855 0.00924683 89.2424 0.00924683 77.8321V79.3719C0.00924683 90.7823 4.4543 101.525 12.5437 109.635C20.6433 117.709 31.3864 122.154 42.7967 122.154H63.5643C66.259 122.154 68.8306 121.682 71.2225 120.82C79.0655 117.971 84.8759 110.867 85.8512 102.295C85.9436 101.572 85.9949 100.827 86 100.083C85.9754 100.293 85.9364 100.498 85.8912 100.701Z" fill="#1F1E21"/>
</g>
<path d="M65.5158 70.2837H45.7117C41.1265 70.2729 36.972 68.4056 33.9636 65.3972C30.9444 62.3781 29.0771 58.2076 29.0771 53.6009V19.3899C29.0771 15.994 26.3218 13.2335 22.9203 13.2335H22.8561C19.9011 13.2335 17.4312 15.3159 16.8394 18.0928C17.7325 10.2626 23.0388 3.77265 30.2069 1.16772C32.7743 2.02902 35.1365 3.33122 37.2029 4.98862C42.4179 9.16472 45.7599 15.5849 45.7599 22.7858V51.8732C46.1043 56.7869 48.2355 61.2047 51.5128 64.4826C51.9163 64.886 52.3361 65.2735 52.7776 65.6395C56.2217 68.5401 60.6616 70.2837 65.5158 70.2837Z" fill="#017DC0"/>
<g opacity="0.4">
<path d="M47.5395 70.2817H45.7122C41.1286 70.2714 36.9709 68.403 33.9631 65.3952C30.945 62.3771 29.0766 58.2092 29.0766 53.5999V19.3894C29.0766 15.9966 26.3203 13.2351 22.9223 13.2351H22.8556C19.8991 13.2351 17.4302 15.3139 16.8399 18.0908C17.733 10.2632 23.0404 3.77008 30.2058 1.16772C30.5087 1.27038 30.8115 1.37817 31.1092 1.49109C30.9244 1.58862 30.7602 1.68101 30.6729 1.71694C28.2246 2.81537 25.9969 4.39629 24.1491 6.34165C22.7889 7.78398 21.7264 9.3649 20.8332 11.1255C20.8266 11.1383 20.8168 11.1593 20.8055 11.186C20.5976 11.6706 20.9852 12.1941 21.5108 12.1561C23.2303 12.0314 24.9775 12.1638 26.5615 12.8142C29.1998 13.8972 30.9039 16.5458 30.9039 19.3894V53.5999C30.9039 58.2092 32.7723 62.3771 35.7904 65.3952C38.7982 68.403 42.9559 70.2714 47.5395 70.2817Z" fill="#1F1E21"/>
</g>
</svg>
